<mxfile host="app.diagrams.net" modified="2020-09-19T11:38:57.870Z" agent="5.0 (Windows)" etag="thF9za5fSHqdQfvqqrMn" version="13.7.3" type="github">
  <diagram id="p5LZxdcd67pqXwQ_2G6Q" name="Page-1">
    <mxGraphModel dx="1422" dy="763" grid="1" gridSize="10" guides="1" tooltips="1" connect="1" arrows="1" fold="1" page="1" pageScale="1" pageWidth="827" pageHeight="1169" math="0" shadow="0">
      <root>
        <mxCell id="0" />
        <mxCell id="1" parent="0" />
        <mxCell id="mHs1j3uvdiCKNuWTur10-1" value="" style="shape=cylinder3;whiteSpace=wrap;html=1;boundedLbl=1;backgroundOutline=1;size=15;" vertex="1" parent="1">
          <mxGeometry x="370" y="30" width="60" height="80" as="geometry" />
        </mxCell>
        <mxCell id="mHs1j3uvdiCKNuWTur10-2" value="" style="shape=cylinder3;whiteSpace=wrap;html=1;boundedLbl=1;backgroundOutline=1;size=15;" vertex="1" parent="1">
          <mxGeometry x="80" y="150" width="60" height="80" as="geometry" />
        </mxCell>
        <mxCell id="mHs1j3uvdiCKNuWTur10-3" value="" style="shape=cylinder3;whiteSpace=wrap;html=1;boundedLbl=1;backgroundOutline=1;size=15;" vertex="1" parent="1">
          <mxGeometry x="260" y="150" width="60" height="80" as="geometry" />
        </mxCell>
        <mxCell id="mHs1j3uvdiCKNuWTur10-4" value="" style="shape=cylinder3;whiteSpace=wrap;html=1;boundedLbl=1;backgroundOutline=1;size=15;" vertex="1" parent="1">
          <mxGeometry x="450" y="150" width="60" height="80" as="geometry" />
        </mxCell>
        <mxCell id="mHs1j3uvdiCKNuWTur10-5" value="" style="shape=cylinder3;whiteSpace=wrap;html=1;boundedLbl=1;backgroundOutline=1;size=15;" vertex="1" parent="1">
          <mxGeometry x="650" y="150" width="60" height="80" as="geometry" />
        </mxCell>
        <mxCell id="mHs1j3uvdiCKNuWTur10-6" value="Main Database" style="text;html=1;strokeColor=none;fillColor=none;align=center;verticalAlign=middle;whiteSpace=wrap;rounded=0;" vertex="1" parent="1">
          <mxGeometry x="430" y="60" width="110" height="20" as="geometry" />
        </mxCell>
        <mxCell id="mHs1j3uvdiCKNuWTur10-7" value="OrgUnit" style="text;html=1;strokeColor=none;fillColor=none;align=center;verticalAlign=middle;whiteSpace=wrap;rounded=0;" vertex="1" parent="1">
          <mxGeometry x="90" y="190" width="40" height="20" as="geometry" />
        </mxCell>
        <mxCell id="mHs1j3uvdiCKNuWTur10-9" value="OrgUnit" style="text;html=1;strokeColor=none;fillColor=none;align=center;verticalAlign=middle;whiteSpace=wrap;rounded=0;" vertex="1" parent="1">
          <mxGeometry x="270" y="190" width="40" height="20" as="geometry" />
        </mxCell>
        <mxCell id="mHs1j3uvdiCKNuWTur10-10" value="OrgUnit" style="text;html=1;strokeColor=none;fillColor=none;align=center;verticalAlign=middle;whiteSpace=wrap;rounded=0;" vertex="1" parent="1">
          <mxGeometry x="460" y="190" width="40" height="20" as="geometry" />
        </mxCell>
        <mxCell id="mHs1j3uvdiCKNuWTur10-11" value="OrgUnit" style="text;html=1;strokeColor=none;fillColor=none;align=center;verticalAlign=middle;whiteSpace=wrap;rounded=0;" vertex="1" parent="1">
          <mxGeometry x="660" y="190" width="40" height="20" as="geometry" />
        </mxCell>
        <mxCell id="mHs1j3uvdiCKNuWTur10-12" value="" style="rounded=1;whiteSpace=wrap;html=1;" vertex="1" parent="1">
          <mxGeometry x="60" y="280" width="680" height="290" as="geometry" />
        </mxCell>
        <mxCell id="mHs1j3uvdiCKNuWTur10-13" value="Actor" style="shape=umlActor;verticalLabelPosition=bottom;verticalAlign=top;html=1;outlineConnect=0;" vertex="1" parent="1">
          <mxGeometry x="95" y="780" width="30" height="60" as="geometry" />
        </mxCell>
        <mxCell id="mHs1j3uvdiCKNuWTur10-14" value="Actor" style="shape=umlActor;verticalLabelPosition=bottom;verticalAlign=top;html=1;outlineConnect=0;" vertex="1" parent="1">
          <mxGeometry x="280" y="780" width="30" height="60" as="geometry" />
        </mxCell>
        <mxCell id="mHs1j3uvdiCKNuWTur10-15" value="Actor" style="shape=umlActor;verticalLabelPosition=bottom;verticalAlign=top;html=1;outlineConnect=0;" vertex="1" parent="1">
          <mxGeometry x="475" y="780" width="30" height="60" as="geometry" />
        </mxCell>
        <mxCell id="mHs1j3uvdiCKNuWTur10-16" value="Actor" style="shape=umlActor;verticalLabelPosition=bottom;verticalAlign=top;html=1;outlineConnect=0;" vertex="1" parent="1">
          <mxGeometry x="665" y="780" width="30" height="60" as="geometry" />
        </mxCell>
        <mxCell id="mHs1j3uvdiCKNuWTur10-17" value="" style="rounded=1;whiteSpace=wrap;html=1;" vertex="1" parent="1">
          <mxGeometry x="80" y="350" width="640" height="130" as="geometry" />
        </mxCell>
        <mxCell id="mHs1j3uvdiCKNuWTur10-19" value="HelpDesk" style="label;whiteSpace=wrap;html=1;align=center;verticalAlign=bottom;spacingLeft=0;spacingBottom=4;imageAlign=center;imageVerticalAlign=top;image=img/clipart/Gear_128x128.png" vertex="1" parent="1">
          <mxGeometry x="570" y="360" width="120" height="80" as="geometry" />
        </mxCell>
        <mxCell id="mHs1j3uvdiCKNuWTur10-20" value="LicenseManagement" style="label;whiteSpace=wrap;html=1;align=center;verticalAlign=bottom;spacingLeft=0;spacingBottom=4;imageAlign=center;imageVerticalAlign=top;image=img/clipart/Gear_128x128.png" vertex="1" parent="1">
          <mxGeometry x="250" y="360" width="120" height="80" as="geometry" />
        </mxCell>
        <mxCell id="mHs1j3uvdiCKNuWTur10-21" value="AssetManagement" style="label;whiteSpace=wrap;html=1;align=center;verticalAlign=bottom;spacingLeft=0;spacingBottom=4;imageAlign=center;imageVerticalAlign=top;image=img/clipart/Gear_128x128.png" vertex="1" parent="1">
          <mxGeometry x="430" y="360" width="120" height="80" as="geometry" />
        </mxCell>
        <mxCell id="mHs1j3uvdiCKNuWTur10-22" value="AD Sync" style="label;whiteSpace=wrap;html=1;align=center;verticalAlign=bottom;spacingLeft=0;spacingBottom=4;imageAlign=center;imageVerticalAlign=top;image=img/clipart/Gear_128x128.png" vertex="1" parent="1">
          <mxGeometry x="110" y="360" width="120" height="80" as="geometry" />
        </mxCell>
        <mxCell id="mHs1j3uvdiCKNuWTur10-23" value="API Gateway" style="text;html=1;strokeColor=none;fillColor=none;align=center;verticalAlign=middle;whiteSpace=wrap;rounded=0;" vertex="1" parent="1">
          <mxGeometry x="335" y="540" width="130" height="20" as="geometry" />
        </mxCell>
        <mxCell id="mHs1j3uvdiCKNuWTur10-24" value="Services" style="text;html=1;strokeColor=none;fillColor=none;align=center;verticalAlign=middle;whiteSpace=wrap;rounded=0;" vertex="1" parent="1">
          <mxGeometry x="390" y="450" width="40" height="20" as="geometry" />
        </mxCell>
        <mxCell id="mHs1j3uvdiCKNuWTur10-26" value="" style="endArrow=classic;startArrow=classic;html=1;entryX=0.5;entryY=1;entryDx=0;entryDy=0;entryPerimeter=0;exitX=0.11;exitY=0;exitDx=0;exitDy=0;exitPerimeter=0;" edge="1" parent="1" source="mHs1j3uvdiCKNuWTur10-12" target="mHs1j3uvdiCKNuWTur10-2">
          <mxGeometry width="50" height="50" relative="1" as="geometry">
            <mxPoint x="95" y="310" as="sourcePoint" />
            <mxPoint x="145" y="260" as="targetPoint" />
          </mxGeometry>
        </mxCell>
        <mxCell id="mHs1j3uvdiCKNuWTur10-27" value="" style="endArrow=classic;startArrow=classic;html=1;entryX=0.5;entryY=1;entryDx=0;entryDy=0;entryPerimeter=0;exitX=0.351;exitY=0.003;exitDx=0;exitDy=0;exitPerimeter=0;" edge="1" parent="1" source="mHs1j3uvdiCKNuWTur10-12" target="mHs1j3uvdiCKNuWTur10-3">
          <mxGeometry width="50" height="50" relative="1" as="geometry">
            <mxPoint x="390" y="350" as="sourcePoint" />
            <mxPoint x="440" y="300" as="targetPoint" />
          </mxGeometry>
        </mxCell>
        <mxCell id="mHs1j3uvdiCKNuWTur10-28" value="" style="endArrow=classic;startArrow=classic;html=1;entryX=0.5;entryY=1;entryDx=0;entryDy=0;entryPerimeter=0;exitX=0.841;exitY=0.007;exitDx=0;exitDy=0;exitPerimeter=0;" edge="1" parent="1" source="mHs1j3uvdiCKNuWTur10-12" target="mHs1j3uvdiCKNuWTur10-5">
          <mxGeometry width="50" height="50" relative="1" as="geometry">
            <mxPoint x="390" y="350" as="sourcePoint" />
            <mxPoint x="440" y="300" as="targetPoint" />
          </mxGeometry>
        </mxCell>
        <mxCell id="mHs1j3uvdiCKNuWTur10-29" value="" style="endArrow=classic;startArrow=classic;html=1;entryX=0.5;entryY=1;entryDx=0;entryDy=0;entryPerimeter=0;exitX=0.587;exitY=0.003;exitDx=0;exitDy=0;exitPerimeter=0;" edge="1" parent="1" source="mHs1j3uvdiCKNuWTur10-12" target="mHs1j3uvdiCKNuWTur10-4">
          <mxGeometry width="50" height="50" relative="1" as="geometry">
            <mxPoint x="390" y="350" as="sourcePoint" />
            <mxPoint x="440" y="300" as="targetPoint" />
          </mxGeometry>
        </mxCell>
        <mxCell id="mHs1j3uvdiCKNuWTur10-30" value="Windows Management Studio" style="rounded=0;whiteSpace=wrap;html=1;" vertex="1" parent="1">
          <mxGeometry x="50" y="700" width="120" height="60" as="geometry" />
        </mxCell>
        <mxCell id="mHs1j3uvdiCKNuWTur10-31" value="Web Management Studio" style="rounded=0;whiteSpace=wrap;html=1;" vertex="1" parent="1">
          <mxGeometry x="235" y="700" width="120" height="60" as="geometry" />
        </mxCell>
        <mxCell id="mHs1j3uvdiCKNuWTur10-32" value="Mobile Management Studio" style="rounded=0;whiteSpace=wrap;html=1;" vertex="1" parent="1">
          <mxGeometry x="430" y="700" width="120" height="60" as="geometry" />
        </mxCell>
        <mxCell id="mHs1j3uvdiCKNuWTur10-33" value="3rd Party" style="rounded=0;whiteSpace=wrap;html=1;" vertex="1" parent="1">
          <mxGeometry x="610" y="700" width="120" height="60" as="geometry" />
        </mxCell>
        <mxCell id="mHs1j3uvdiCKNuWTur10-36" value="" style="endArrow=classic;html=1;entryX=0.354;entryY=1.01;entryDx=0;entryDy=0;entryPerimeter=0;exitX=0.308;exitY=0;exitDx=0;exitDy=0;exitPerimeter=0;" edge="1" parent="1" source="mHs1j3uvdiCKNuWTur10-31" target="mHs1j3uvdiCKNuWTur10-12">
          <mxGeometry width="50" height="50" relative="1" as="geometry">
            <mxPoint x="390" y="620" as="sourcePoint" />
            <mxPoint x="440" y="570" as="targetPoint" />
          </mxGeometry>
        </mxCell>
        <mxCell id="mHs1j3uvdiCKNuWTur10-37" value="" style="endArrow=classic;html=1;" edge="1" parent="1">
          <mxGeometry width="50" height="50" relative="1" as="geometry">
            <mxPoint x="320" y="571" as="sourcePoint" />
            <mxPoint x="295" y="700" as="targetPoint" />
          </mxGeometry>
        </mxCell>
        <mxCell id="mHs1j3uvdiCKNuWTur10-38" value="" style="endArrow=classic;html=1;exitX=0.5;exitY=0;exitDx=0;exitDy=0;entryX=0.628;entryY=1.017;entryDx=0;entryDy=0;entryPerimeter=0;" edge="1" parent="1" source="mHs1j3uvdiCKNuWTur10-32" target="mHs1j3uvdiCKNuWTur10-12">
          <mxGeometry width="50" height="50" relative="1" as="geometry">
            <mxPoint x="390" y="620" as="sourcePoint" />
            <mxPoint x="440" y="570" as="targetPoint" />
          </mxGeometry>
        </mxCell>
        <mxCell id="mHs1j3uvdiCKNuWTur10-39" value="" style="endArrow=classic;html=1;exitX=0.654;exitY=1.014;exitDx=0;exitDy=0;exitPerimeter=0;entryX=0.75;entryY=0;entryDx=0;entryDy=0;" edge="1" parent="1" source="mHs1j3uvdiCKNuWTur10-12" target="mHs1j3uvdiCKNuWTur10-32">
          <mxGeometry width="50" height="50" relative="1" as="geometry">
            <mxPoint x="507.96000000000004" y="700" as="sourcePoint" />
            <mxPoint x="530" y="630" as="targetPoint" />
          </mxGeometry>
        </mxCell>
        <mxCell id="mHs1j3uvdiCKNuWTur10-41" value="" style="endArrow=classic;html=1;exitX=0.5;exitY=0;exitDx=0;exitDy=0;" edge="1" parent="1" source="mHs1j3uvdiCKNuWTur10-32">
          <mxGeometry width="50" height="50" relative="1" as="geometry">
            <mxPoint x="490" y="700" as="sourcePoint" />
            <mxPoint x="487" y="575" as="targetPoint" />
          </mxGeometry>
        </mxCell>
        <mxCell id="mHs1j3uvdiCKNuWTur10-42" value="" style="endArrow=classic;html=1;entryX=0.84;entryY=1.003;entryDx=0;entryDy=0;entryPerimeter=0;exitX=0.25;exitY=0;exitDx=0;exitDy=0;" edge="1" parent="1" source="mHs1j3uvdiCKNuWTur10-33" target="mHs1j3uvdiCKNuWTur10-12">
          <mxGeometry width="50" height="50" relative="1" as="geometry">
            <mxPoint x="390" y="620" as="sourcePoint" />
            <mxPoint x="440" y="570" as="targetPoint" />
          </mxGeometry>
        </mxCell>
        <mxCell id="mHs1j3uvdiCKNuWTur10-43" value="" style="endArrow=classic;html=1;exitX=0.885;exitY=1;exitDx=0;exitDy=0;exitPerimeter=0;entryX=0.5;entryY=0;entryDx=0;entryDy=0;" edge="1" parent="1" source="mHs1j3uvdiCKNuWTur10-12" target="mHs1j3uvdiCKNuWTur10-33">
          <mxGeometry width="50" height="50" relative="1" as="geometry">
            <mxPoint x="390" y="620" as="sourcePoint" />
            <mxPoint x="440" y="570" as="targetPoint" />
          </mxGeometry>
        </mxCell>
        <mxCell id="mHs1j3uvdiCKNuWTur10-44" value="" style="endArrow=classic;html=1;exitX=0.35;exitY=-0.017;exitDx=0;exitDy=0;exitPerimeter=0;entryX=0.082;entryY=1.003;entryDx=0;entryDy=0;entryPerimeter=0;" edge="1" parent="1" source="mHs1j3uvdiCKNuWTur10-30" target="mHs1j3uvdiCKNuWTur10-12">
          <mxGeometry width="50" height="50" relative="1" as="geometry">
            <mxPoint x="390" y="620" as="sourcePoint" />
            <mxPoint x="440" y="570" as="targetPoint" />
          </mxGeometry>
        </mxCell>
        <mxCell id="mHs1j3uvdiCKNuWTur10-45" value="" style="endArrow=classic;html=1;exitX=0.122;exitY=1.017;exitDx=0;exitDy=0;exitPerimeter=0;" edge="1" parent="1" source="mHs1j3uvdiCKNuWTur10-12" target="mHs1j3uvdiCKNuWTur10-30">
          <mxGeometry width="50" height="50" relative="1" as="geometry">
            <mxPoint x="390" y="620" as="sourcePoint" />
            <mxPoint x="440" y="570" as="targetPoint" />
          </mxGeometry>
        </mxCell>
        <mxCell id="mHs1j3uvdiCKNuWTur10-48" value="" style="shape=partialRectangle;whiteSpace=wrap;html=1;bottom=1;right=1;left=1;top=0;fillColor=none;routingCenterX=-0.5;rotation=-180;" vertex="1" parent="1">
          <mxGeometry x="100" y="530" width="580" height="40" as="geometry" />
        </mxCell>
        <mxCell id="mHs1j3uvdiCKNuWTur10-49" value="API Gateway" style="shape=partialRectangle;whiteSpace=wrap;html=1;bottom=1;right=1;left=1;top=0;fillColor=none;routingCenterX=-0.5;" vertex="1" parent="1">
          <mxGeometry x="100" y="280" width="550" height="40" as="geometry" />
        </mxCell>
        <mxCell id="mHs1j3uvdiCKNuWTur10-50" value="" style="endArrow=classic;html=1;exitX=0.56;exitY=0.95;exitDx=0;exitDy=0;exitPerimeter=0;" edge="1" parent="1" source="mHs1j3uvdiCKNuWTur10-48" target="mHs1j3uvdiCKNuWTur10-17">
          <mxGeometry width="50" height="50" relative="1" as="geometry">
            <mxPoint x="390" y="410" as="sourcePoint" />
            <mxPoint x="440" y="360" as="targetPoint" />
          </mxGeometry>
        </mxCell>
        <mxCell id="mHs1j3uvdiCKNuWTur10-51" value="" style="endArrow=classic;html=1;exitX=0.558;exitY=1.038;exitDx=0;exitDy=0;exitPerimeter=0;entryX=0.383;entryY=1.075;entryDx=0;entryDy=0;entryPerimeter=0;" edge="1" parent="1" source="mHs1j3uvdiCKNuWTur10-17" target="mHs1j3uvdiCKNuWTur10-48">
          <mxGeometry width="50" height="50" relative="1" as="geometry">
            <mxPoint x="390" y="410" as="sourcePoint" />
            <mxPoint x="440" y="360" as="targetPoint" />
          </mxGeometry>
        </mxCell>
        <mxCell id="mHs1j3uvdiCKNuWTur10-52" value="" style="endArrow=classic;html=1;exitX=0.436;exitY=-0.015;exitDx=0;exitDy=0;exitPerimeter=0;" edge="1" parent="1" source="mHs1j3uvdiCKNuWTur10-17">
          <mxGeometry width="50" height="50" relative="1" as="geometry">
            <mxPoint x="350.09000000000003" y="372" as="sourcePoint" />
            <mxPoint x="370.0011111111111" y="320" as="targetPoint" />
          </mxGeometry>
        </mxCell>
        <mxCell id="mHs1j3uvdiCKNuWTur10-53" value="" style="endArrow=classic;html=1;exitX=0.558;exitY=1.038;exitDx=0;exitDy=0;exitPerimeter=0;entryX=0.545;entryY=-0.015;entryDx=0;entryDy=0;entryPerimeter=0;" edge="1" parent="1" target="mHs1j3uvdiCKNuWTur10-17">
          <mxGeometry width="50" height="50" relative="1" as="geometry">
            <mxPoint x="413.9999999999999" y="320.00000000000006" as="sourcePoint" />
            <mxPoint x="434.7399999999999" y="362.06" as="targetPoint" />
          </mxGeometry>
        </mxCell>
        <mxCell id="mHs1j3uvdiCKNuWTur10-54" value="" style="endArrow=classic;startArrow=classic;html=1;entryX=0.5;entryY=1;entryDx=0;entryDy=0;entryPerimeter=0;exitX=0.553;exitY=-0.05;exitDx=0;exitDy=0;exitPerimeter=0;" edge="1" parent="1" source="mHs1j3uvdiCKNuWTur10-49" target="mHs1j3uvdiCKNuWTur10-1">
          <mxGeometry width="50" height="50" relative="1" as="geometry">
            <mxPoint x="390" y="260" as="sourcePoint" />
            <mxPoint x="440" y="210" as="targetPoint" />
          </mxGeometry>
        </mxCell>
      </root>
    </mxGraphModel>
  </diagram>
</mxfile>
